<?xml version="1.0" encoding="utf-8"?>
<!-- Generator: Adobe Illustrator 24.1.0, SVG Export Plug-In . SVG Version: 6.00 Build 0)  -->
<svg version="1.1" id="Layer_1" xmlns="http://www.w3.org/2000/svg" xmlns:xlink="http://www.w3.org/1999/xlink" x="0px" y="0px"
	 viewBox="0 0 612 792" style="enable-background:new 0 0 612 792;" xml:space="preserve">
<style type="text/css">
	.st0{fill:#FFFFFF;}
	.st1{fill:#009444;}
	.st2{fill:none;stroke:#006838;stroke-width:1.5;stroke-linecap:round;}
	.st3{fill-rule:evenodd;clip-rule:evenodd;fill:#815E48;}
	.st4{fill:#64413B;}
	.st5{fill-rule:evenodd;clip-rule:evenodd;fill:#D13827;}
	.st6{fill-rule:evenodd;clip-rule:evenodd;fill:#E83D26;}
	.st7{fill-rule:evenodd;clip-rule:evenodd;fill:#F04F3C;}
	.st8{fill-rule:evenodd;clip-rule:evenodd;fill:#60863A;}
	.st9{fill-rule:evenodd;clip-rule:evenodd;fill:#89A83F;}
	.st10{fill:#90B63E;}
	.st11{fill:#81A33E;}
	.st12{fill:#9CC43E;}
	.st13{fill:#F17622;}
	.st14{fill:#F6871F;}
	.st15{fill:#C65B28;}
	.st16{fill:#8DC63F;}
	.st17{fill:#72BF44;}
	.st18{fill:#006838;}
</style>
<rect x="0.7" y="0.9" class="st0" width="612" height="612"/>
<g>
	
		<image style="overflow:visible;opacity:0.5;" width="361" height="397" xlink:href="5317175D336136E4.png"  transform="matrix(0.24 0 0 0.24 268.92 358.44)">
	</image>
	<g>
		<path class="st1" d="M280.6,387.6l49.3,47.5l7.1-65c0,0-15.7,8.1-25.4,10.8C301.9,383.5,280.6,387.6,280.6,387.6z"/>
	</g>
</g>
<g>
	
		<image style="overflow:visible;opacity:0.5;" width="360" height="389" xlink:href="5317175D336136E5.png"  transform="matrix(0.24 0 0 0.24 267.72 359.4)">
	</image>
	<g>
		<path class="st1" d="M279.2,387.3l49.4,46.6l6.8-63.1c0,0-13.9,4.9-24.6,8.5C301.3,382.4,279.2,387.3,279.2,387.3z"/>
	</g>
</g>
<g>
	<g>
		<g>
			
				<image style="overflow:visible;opacity:0.5;" width="383" height="392" xlink:href="5317175D336136E3.png"  transform="matrix(0.24 0 0 0.24 201.24 375.24)">
			</image>
			<g>
				<path class="st1" d="M212.8,388.7l28.9,61.8l32.8-63.7c0,0-16.8,5-34.3,5C225.4,391.8,212.8,388.7,212.8,388.7z"/>
			</g>
		</g>
		<g>
			
				<image style="overflow:visible;opacity:0.5;" width="365" height="398" xlink:href="5317175D336136EC.png"  transform="matrix(0.24 0 0 0.24 330.12 327.96)">
			</image>
			<g>
				<path class="st1" d="M341.6,367.6l57.5,37.2l-5.5-65.2c0,0-13.9,10.9-22.8,15.4S341.6,367.6,341.6,367.6z"/>
			</g>
		</g>
		<g>
			
				<image style="overflow:visible;opacity:0.5;" width="382" height="384" xlink:href="5317175D336136EF.png"  transform="matrix(0.24 0 0 0.24 200.04 375.72)">
			</image>
			<g>
				<path class="st1" d="M211.5,388.7l29.6,60.6l31.8-61.9c0,0-16.6,3.6-34.1,3.5C224.2,390.7,212.1,388.3,211.5,388.7z"/>
			</g>
		</g>
		<g>
			
				<image style="overflow:visible;opacity:0.5;" width="365" height="389" xlink:href="5317175D336136ED.png"  transform="matrix(0.24 0 0 0.24 328.68 329.16)">
			</image>
			<g>
				<path class="st1" d="M340.2,367.6l57.4,36.3l-5.4-63.2c0,0-12.7,7.5-22.6,13C360.9,358.6,340.2,367.6,340.2,367.6z"/>
			</g>
		</g>
		<path class="st2" d="M194.9,382.4c0,0,46.7,16.1,117.1-8.1c49.2-16.9,97.3-50.7,97.3-50.7"/>
	</g>
	<g>
		<path class="st3" d="M251.3,410.2l0.7-0.2l0.3,1.3c0.1,0.2-0.1,0.4-0.3,0.5c-0.2,0.1-0.4-0.1-0.5-0.3L251.3,410.2L251.3,410.2z"/>
		<path class="st4" d="M241.3,420.7c0.1,0,0.3,0.1,0.3,0.3l0.4,1.1c0.1,0.2,0,0.5-0.2,0.6c-0.2,0.1-0.3,0-0.4-0.1v0.1
			c0,0.2-0.2,0.4-0.4,0.4c-0.2,0-0.4-0.2-0.4-0.4v-0.1c-0.1,0.1-0.3,0.1-0.4,0.1c-0.2-0.1-0.3-0.4-0.2-0.6l0.4-1.1
			c0.1-0.1,0.2-0.2,0.3-0.3c0.1-0.1,0.2-0.2,0.4-0.2C241.1,420.5,241.2,420.6,241.3,420.7z"/>
		<path class="st4" d="M238,399.6c-0.3-0.3-0.3-0.7,0-0.9c0.3-0.3,0.7-0.3,0.9,0c0.8,0.8,1.5,1.8,1.9,2.9l0,0c0.4,1,0.7,2.2,0.7,3.4
			c0,0.4-0.3,0.6-0.6,0.6c-0.4,0-0.6-0.3-0.6-0.6c0-1-0.2-2-0.6-2.9l0,0C239.3,401.2,238.7,400.3,238,399.6z"/>
		<path class="st5" d="M240.9,404.9c0.4,0,0.8-0.1,1.1-0.4c0.9-0.8,2.1-1.2,3.6-1.2c4.5,0,8,3.6,7.6,9c-0.4,5.4-4.4,10.4-8.8,10.4
			c-1,0-1.9-0.3-2.6-0.7c-0.3-0.2-0.6-0.3-0.9-0.3"/>
		<path class="st6" d="M240.9,421.6c-0.3,0-0.6,0.1-0.9,0.3c-0.7,0.5-1.6,0.7-2.6,0.7c-4.5,0-8.4-5.1-8.8-10.4c-0.4-5.4,3.2-9,7.6-9
			c1.5,0,2.7,0.4,3.6,1.2c0.3,0.3,0.7,0.4,1.1,0.4"/>
		<path class="st6" d="M245.1,404.4c1.1,0,2.2,0.3,3.1,0.8c-0.4-0.1-0.9-0.1-1.3-0.1c-1.4,0-2.5,0.4-3.3,1.1c-0.6,0.5-1.4,0.5-2,0
			c-0.1-0.1-0.3-0.2-0.5-0.3c0.3,0,0.5-0.2,0.7-0.3C242.7,404.8,243.7,404.4,245.1,404.4L245.1,404.4z"/>
		<path class="st7" d="M230,411.6c0-4.3,3-7.2,6.7-7.2c1.1,0,2,0.3,2.8,0.8c-0.4-0.1-0.8-0.1-1.2-0.1c-3.5,0-6.4,2.4-6.9,6.2
			L230,411.6z"/>
		<g>
			<path class="st8" d="M249.6,397.5c-0.2,1.9-1.2,3.8-3,4.8c-1.8,1-3.9,1.1-5.7,0.2L249.6,397.5z"/>
			<path class="st9" d="M240.9,402.5c0.2-1.9,1.2-3.8,3-4.8c1.8-1,3.9-1.1,5.7-0.2L240.9,402.5z"/>
		</g>
	</g>
	<g>
		<g>
			<g>
				<g>
					<path class="st10" d="M372,362.5c-0.6-0.3-1.2-0.1-1.5,0.5c-0.3,0.6-0.1,1.2,0.5,1.5c0.6,0.3,7.1,3.1,7.4,2.6
						C378.6,366.6,372.5,362.8,372,362.5z"/>
				</g>
			</g>
			<g>
				<g>
					<path class="st11" d="M372.5,365.2c-0.5-0.1-0.9,0.2-1,0.7c-0.1,0.5,0.2,0.9,0.7,1c0.5,0.1,5.9,0.7,6,0.3
						C378.2,366.7,373,365.3,372.5,365.2z"/>
				</g>
			</g>
			<g>
				<g>
					<path class="st12" d="M373.6,361c-0.4-0.4-1.2-0.4-1.6,0c-0.4,0.4-0.4,1.2,0,1.6c0.4,0.4,5.9,5,6.3,4.6
						C378.7,366.8,374,361.4,373.6,361z"/>
				</g>
			</g>
			<g>
				<g>
					<path class="st10" d="M379.5,358.4c-0.6-0.1-1.2,0.3-1.3,1c-0.1,0.6-0.6,7.7,0,7.8c0.6,0.1,2.2-6.9,2.3-7.5
						C380.5,359.1,380.1,358.5,379.5,358.4z"/>
				</g>
			</g>
			<g>
				<g>
					<path class="st11" d="M381.2,360.9c-0.4-0.2-0.9,0-1.1,0.4c-0.2,0.4-2.2,5.5-1.7,5.7c0.4,0.2,3.1-4.5,3.3-5
						C381.8,361.7,381.7,361.1,381.2,360.9z"/>
				</g>
			</g>
			<g>
				<g>
					<path class="st12" d="M378.3,359.4c-0.1-0.6-0.7-1-1.3-1c-0.6,0.1-1,0.7-1,1.3c0.1,0.6,1.6,7.6,2.2,7.5
						C378.9,367.1,378.4,360,378.3,359.4z"/>
				</g>
			</g>
			<g>
				<g>
					<path class="st11" d="M375.4,358.8c-0.3-0.6-1-0.8-1.7-0.5c-0.6,0.3-0.8,1-0.5,1.7c0.3,0.6,4.5,7.7,5.1,7.4
						C378.9,366.9,375.7,359.4,375.4,358.8z"/>
				</g>
			</g>
		</g>
		<g>
			<g>
				<path class="st13" d="M384.5,364.9c0.5,1.1,9.4,27.8,8.3,28.4l-1.6,0.8c-1.1,0.5-17.9-22.1-18.5-23.2l0,0
					c-0.5-1.1-0.1-2.4,0.9-2.9l7.9-4C382.7,363.4,384,363.9,384.5,364.9L384.5,364.9z"/>
				<path class="st14" d="M377.7,366l-3.9,2c-1.1,0.5-1.5,1.8-0.9,2.9c0.5,1.1,17.4,23.7,18.5,23.2l0.5-0.3L377.7,366z"/>
			</g>
			<g>
				<path class="st14" d="M383.7,370.6c-0.5,0.3-0.7,0.9-0.4,1.4c0.3,0.5,0.9,0.7,1.4,0.4l2-1c-0.2-0.7-0.4-1.4-0.7-2L383.7,370.6z"
					/>
				<path class="st15" d="M378.7,369.9c-0.3-0.5-0.9-0.7-1.4-0.4l-4.1,2.1c0.3,0.4,0.7,1,1.2,1.7l3.8-2
					C378.8,371.1,379,370.4,378.7,369.9z"/>
				<path class="st15" d="M383.3,380.8c-0.1-0.2-0.4-0.3-0.7-0.2l-2,1c0.2,0.3,0.4,0.5,0.6,0.8l1.9-0.9
					C383.4,381.3,383.5,381,383.3,380.8z"/>
				<path class="st14" d="M388.2,384.3c0.2,0.4,0.6,0.5,1,0.3l1.4-0.7c-0.1-0.5-0.3-0.9-0.4-1.4l-1.6,0.8
					C388.2,383.6,388.1,384,388.2,384.3z"/>
			</g>
			<g>
				<path class="st13" d="M378.7,369.9c-0.3-0.5-0.9-0.7-1.4-0.4l-4.1,2.1c0.3,0.4,0.7,1,1.2,1.7l3.8-2
					C378.8,371.1,379,370.4,378.7,369.9z"/>
				<path class="st13" d="M383.3,380.8c-0.1-0.2-0.4-0.3-0.7-0.2l-2,1c0.2,0.3,0.4,0.5,0.6,0.8l1.9-0.9
					C383.4,381.3,383.5,381,383.3,380.8z"/>
			</g>
		</g>
	</g>
	<g>
		<path class="st16" d="M315.9,408.4l1.5,4.6l6-2l-1.2-3.6c-0.5-1.6,0.2-6,2.5-10.5l-2-1.2l-2.4,4.6l1.2-4.5l-3.5,1.1l-0.7,3.7
			l-1.8-2.9l-4,1.3l3.6,4.2l-7.1-2.9l-0.4,2.3C307.7,402.6,314.3,403.4,315.9,408.4z"/>
		<g>
			<path class="st17" d="M311,397.4c0.7,2.2-0.7,4.7-3.3,5.5c-2.5,0.8-5.1-0.3-5.8-2.5c-0.7-2.2,0.7-4.7,3.3-5.5
				C307.7,394.1,310.3,395.2,311,397.4z"/>
			
				<ellipse transform="matrix(0.9943 -0.1066 0.1066 0.9943 -40.2206 35.0754)" class="st17" cx="308.1" cy="393.9" rx="3.8" ry="3.8"/>
			<path class="st17" d="M316.6,389.4c0.7,2.3-0.7,4.9-3.3,5.7c-2.6,0.8-5.3-0.3-6.1-2.6c-0.7-2.3,0.7-4.9,3.3-5.7
				C313.1,385.9,315.8,387.1,316.6,389.4z"/>
			<path class="st17" d="M321.7,388.2c0.6,2-0.6,4.1-2.7,4.8c-2.1,0.7-4.4-0.4-5-2.3c-0.6-2,0.6-4.1,2.7-4.8
				C318.8,385.1,321,386.2,321.7,388.2z"/>
			<path class="st17" d="M326.6,389.9c0.6,1.7-0.6,3.6-2.5,4.2c-1.9,0.6-3.9-0.3-4.5-2c-0.6-1.7,0.6-3.6,2.5-4.2
				C324,387.3,326.1,388.2,326.6,389.9z"/>
			<path class="st17" d="M328.8,392.4c0.6,1.7-0.6,3.6-2.7,4.3c-2,0.7-4.1-0.2-4.7-1.9c-0.6-1.7,0.6-3.6,2.7-4.3
				C326.1,389.8,328.2,390.6,328.8,392.4z"/>
			<path class="st17" d="M324.6,392.3c0.6,1.7-0.4,3.6-2.1,4.1c-1.7,0.6-3.6-0.4-4.1-2.1c-0.6-1.7,0.4-3.6,2.1-4.1
				C322.2,389.6,324,390.6,324.6,392.3z"/>
			<path class="st17" d="M316.6,396.2c0.6,2-0.4,4.1-2.4,4.7c-2,0.6-4.1-0.4-4.7-2.4c-0.6-2,0.4-4.1,2.4-4.7
				C313.8,393.2,315.9,394.3,316.6,396.2z"/>
			<g>
				
					<ellipse transform="matrix(0.9967 -8.072385e-02 8.072385e-02 0.9967 -30.904 26.868)" class="st17" cx="316.8" cy="395.6" rx="3.6" ry="3.6"/>
			</g>
			<g>
				<path class="st18" d="M318.3,389.3c0.7,1.6-0.5,3.7-2.8,4.7c-2.3,1-4.7,0.6-5.4-1c-0.7-1.6,0.5-3.7,2.8-4.7
					C315.1,387.4,317.6,387.8,318.3,389.3z"/>
				<path class="st17" d="M318.5,389.8c0.7,1.6-0.5,3.7-2.8,4.7c-2.3,1-4.7,0.6-5.4-1c-0.7-1.6,0.5-3.7,2.8-4.7
					C315.4,387.8,317.8,388.3,318.5,389.8z"/>
			</g>
			<g>
				<path class="st18" d="M311.1,397.5c0.5,1.3,2.4,1.8,4.3,1.1c1.9-0.7,3-2.3,2.5-3.6c-0.5-1.3-2.4-1.8-4.3-1.1
					C311.7,394.5,310.6,396.2,311.1,397.5z"/>
				<path class="st17" d="M311.2,397.9c0.5,1.3,2.4,1.8,4.3,1.1c1.9-0.7,3-2.3,2.5-3.6c-0.5-1.3-2.4-1.8-4.3-1.1
					C311.9,394.9,310.8,396.6,311.2,397.9z"/>
			</g>
			<g>
				<path class="st18" d="M318.9,392.9c0.5,1.3,2.4,1.8,4.2,1.2c1.9-0.7,3-2.3,2.6-3.6c-0.5-1.3-2.4-1.8-4.2-1.2
					C319.5,390,318.4,391.6,318.9,392.9z"/>
				<path class="st17" d="M319,393.3c0.5,1.3,2.4,1.8,4.2,1.2c1.9-0.7,3-2.3,2.6-3.6c-0.5-1.3-2.4-1.8-4.2-1.2
					C319.7,390.4,318.5,392,319,393.3z"/>
			</g>
			<g>
				<path class="st18" d="M304.2,399.2c0.8,1.1,2.7,1.2,4.4,0c1.6-1.1,2.4-3,1.6-4.1c-0.8-1.1-2.7-1.2-4.4,0
					C304.2,396.2,303.4,398,304.2,399.2z"/>
				<path class="st17" d="M304.5,399.5c0.8,1.1,2.7,1.2,4.4,0c1.6-1.1,2.4-3,1.6-4.1c-0.8-1.1-2.7-1.2-4.4,0
					C304.4,396.6,303.7,398.4,304.5,399.5z"/>
			</g>
		</g>
	</g>
</g>
</svg>
