<?xml version="1.0" encoding="utf-8"?>
<!-- Generator: Adobe Illustrator 24.1.0, SVG Export Plug-In . SVG Version: 6.00 Build 0)  -->
<svg version="1.1" id="Layer_1" xmlns="http://www.w3.org/2000/svg" xmlns:xlink="http://www.w3.org/1999/xlink" x="0px" y="0px"
	 viewBox="0 0 612 792" style="enable-background:new 0 0 612 792;" xml:space="preserve">
<style type="text/css">
	.st0{fill:#FFFFFF;}
	.st1{fill:#006838;}
	.st2{fill:#009444;}
</style>
<rect x="0.7" y="0.9" class="st0" width="612" height="612"/>
<image style="overflow:visible;" width="484" height="575" xlink:href="../../Week7/Apples/Apple_blackoutline.png"  transform="matrix(0.1101 5.770039e-03 -5.770039e-03 0.1101 356.459 348.1398)">
</image>
<g>
	<path class="st1" d="M297.8,389.2v22.6h-18.5v-8.9h-10.1V454h10.1v13.7h-42.7V454h10.1v-51.1h-10.1v8.9h-18.5v-22.6H297.8z"/>
</g>
<g>
	<path class="st1" d="M277.6,431.6h1.9v-14.1h-1.9v-3.8h9.7v3.8h-2.2v4.9h7v-4.9h-2.2v-3.8h9.7v3.8h-1.8v14.1h1.8v3.8h-9.7v-3.8h2.2
		v-5.2h-7v5.2h2.2v3.8h-9.7V431.6z"/>
	<path class="st1" d="M301.1,424.6c0-7,4-11.3,10.5-11.3s10.5,4.3,10.5,11.3s-4,11.3-10.5,11.3S301.1,431.6,301.1,424.6z
		 M316.3,424.6c0-3.3-0.8-7.5-4.6-7.5s-4.6,4.2-4.6,7.5s0.8,7.5,4.6,7.5S316.3,427.9,316.3,424.6z"/>
	<path class="st1" d="M344.2,417.5h-1.5v9c0,6.8-2.3,9.2-8.5,9.2c-6.3,0-9-2-9-9.2v-9h-1.6v-3.8h9.3v3.8h-2.2v9
		c0,2.9,0.3,5.5,3.4,5.5c3.2,0,3.5-2.4,3.5-5.5v-9h-2v-3.8h8.5V417.5z"/>
	<path class="st1" d="M365.4,421.4h-5c0-1.4-0.4-2.4-1.2-3.2c-0.7-0.7-1.8-1.1-3.1-1.1c-3.8,0-4.6,4.2-4.6,7.5s0.9,7.5,4.6,7.5
		c2.6,0,4.4-1.7,4.5-4.2h-2.1v-3.8h8.6v3.8h-1.6v7.5H361v-2.1h-0.1c-1.3,1.9-3.4,2.6-5.5,2.6c-6.1,0-9.8-4.6-9.8-11.2
		c0-6.7,2.8-11.3,9.2-11.3c2.2,0,4.6,0.4,5.9,2.6h0.1v-2.1h4.6V421.4z"/>
	<path class="st1" d="M368.3,431.6h1.9v-14.1h-1.9v-3.8h9.7v3.8h-2.2v4.9h7v-4.9h-2.2v-3.8h9.7v3.8h-1.8v14.1h1.8v3.8h-9.7v-3.8h2.2
		v-5.2h-7v5.2h2.2v3.8h-9.7V431.6z"/>
	<path class="st1" d="M411.4,413.8v7.9h-4.6v-4.1h-2.5v14.1h2.5v3.8h-10.6v-3.8h2.5v-14.1h-2.5v4.1h-4.6v-7.9H411.4z"/>
</g>
<g>
	<path class="st1" d="M309.5,402.7h1.2v-8.9h-1.2v-2.4h11.6v4.5h-2.7v-2.1h-4.1v3.5h1.1v-1.4h2.2v5.2h-2.2v-1.5h-1.1v3.1h1.6v2.4
		h-6.3V402.7z"/>
	<path class="st1" d="M322.4,398.2c0-4.5,2.6-7.2,6.7-7.2c4.2,0,6.7,2.7,6.7,7.2s-2.6,7.2-6.7,7.2
		C325,405.4,322.4,402.7,322.4,398.2z M332.1,398.2c0-2.1-0.5-4.8-2.9-4.8s-2.9,2.7-2.9,4.8s0.5,4.8,2.9,4.8
		S332.1,400.3,332.1,398.2z"/>
	<path class="st1" d="M337,402.7h1.2v-8.9H337v-2.4h6.8c1.2,0,2.4,0.1,3.3,0.6c0.9,0.5,1.5,1.5,1.5,3.1c0,2.1-1.3,3.2-3.1,3.3v0
		c2.5,0,2.4,2.2,3.1,4.2h1.1v2.4h-4.1c-0.2-0.4-0.4-1.6-0.8-2.7c-0.2-0.5-0.6-2-1-2.4c-0.2-0.3-0.6-0.3-0.9-0.4h-1v3.1h1.3v2.4H337
		V402.7z M341.8,397.3h1.3c1.1,0,1.9-0.5,1.9-1.9c0-1.4-1-1.6-1.9-1.6h-1.3V397.3z"/>
</g>
<g>
	<path class="st2" d="M261.1,370c0-8.1,5.1-13,13.5-13s13.5,4.9,13.5,13c0,8.1-5.1,13-13.5,13S261.1,378.1,261.1,370z M280.5,370
		c0-3.8-1.1-8.6-5.9-8.6s-5.9,4.8-5.9,8.6c0,3.8,1.1,8.6,5.9,8.6S280.5,373.8,280.5,370z"/>
	<path class="st2" d="M290.7,370c0-8.1,5.1-13,13.5-13s13.5,4.9,13.5,13c0,8.1-5.1,13-13.5,13S290.7,378.1,290.7,370z M310.1,370
		c0-3.8-1.1-8.6-5.9-8.6s-5.9,4.8-5.9,8.6c0,3.8,1.1,8.6,5.9,8.6S310.1,373.8,310.1,370z"/>
	<path class="st2" d="M320,378.1h2.5V362H320v-4.3h8.7c2.6,0,6.3-0.2,8.7,0.2c6.3,1,9.5,6,9.5,12c0,4.1-1.4,8.1-4.9,10.4
		c-3.5,2.3-7,2.1-11.1,2.1H320V378.1z M329.7,378.1h3.3c5,0,6.5-3.8,6.5-8.3c0-4.4-1.4-7.9-6.2-7.9h-3.5V378.1z"/>
</g>
<g>
	<path class="st2" d="M200.6,389.2h7.7V338h-7.7v-13.7h73.6v25.9h-17.3V338h-26v20.3h7.2v-8h13.7v29.6H238v-8.6h-7.2v17.9h10v13.7
		h-40.2V389.2z"/>
</g>
</svg>
